<svg
	version="1.1"
	id="Layer_1"
	x="0px"
	y="0px"
	viewBox="0 0 138.36 85.220001"
	xml:space="preserve"
	width="138.36"
	height="85.220001"
	xmlns="http://www.w3.org/2000/svg"
	xmlns:svg="http://www.w3.org/2000/svg">
	<g
		id="g10"
		transform="translate(-62.58,-85.35)">
		<path
			fill="currentColor"
			d="m 125.39,85.35 h -19.26 c -0.65,0 -1.18,0.53 -1.18,1.18 v 30.61 H 84.2 v -30.6 c 0,-0.65 -0.53,-1.18 -1.18,-1.18 H 63.76 c -0.65,0 -1.18,0.53 -1.18,1.18 v 82.85 c 0,0.65 0.53,1.18 1.18,1.18 h 19.26 c 0.65,0 1.18,-0.53 1.18,-1.18 v -30.61 h 20.75 v 30.61 c 0,0.65 0.53,1.18 1.18,1.18 h 19.26 c 0.65,0 1.18,-0.53 1.18,-1.18 V 86.54 c 0,-0.66 -0.53,-1.19 -1.18,-1.19 z"
			id="path6" />
		<path
			fill="currentColor"
			d="m 199.76,170.57 h -61.64 c -0.65,0 -1.18,-0.53 -1.18,-1.18 V 86.53 c 0,-0.65 0.53,-1.18 1.18,-1.18 h 61.64 c 0.65,0 1.18,0.53 1.18,1.18 v 82.85 c 0,0.66 -0.53,1.19 -1.18,1.19 z"
			id="path8" />
	</g>
</svg>