<svg
	viewBox="0 0 27.099999 30.799999"
	xmlns="http://www.w3.org/2000/svg">
	<path fill="currentColor"
		d="m 27.1,8.3 c 0,0 0,0 0,0 0,-0.3 -0.1,-0.6 -0.3,-0.8 0,0 0,0 0,0 0,0 0,0 -0.1,-0.1 0,0 -0.1,0 -0.1,-0.1 0,0 0,0 0,0 L 14.1,0.2 c 0,0 -0.1,0 -0.1,0 C 13.9,0 13.7,0 13.5,0 13.4,0 13.3,0 13.2,0.1 13.1,0.1 13.1,0.2 13,0.2 L 0.6,7.3 c 0,0 0,0 0,0 0,0 0,0 0,0 0,0 0,0 0,0 -0.2,0.1 -0.3,0.2 -0.3,0.2 0,0 0,0 0,0 C 0.1,7.7 0,8 0,8.3 c 0,0 0,0 0,0 0,0 0,0 0,0 v 14.3 c 0,0.4 0.2,0.8 0.6,1 L 13,30.7 c 0,0 0,0 0.1,0 0,0 0,0 0,0 0.1,0 0.1,0.1 0.2,0.1 0,0 0,0 0,0 0.1,0 0.2,0 0.2,0 0.1,0 0.2,0 0.2,0 0,0 0,0 0,0 0.1,0 0.1,0 0.2,-0.1 0,0 0,0 0,0 0,0 0,0 0.1,0 L 26.4,23.6 C 26.8,23.4 27,23 27,22.6 L 27.1,8.3 c 0,0 0,0 0,0 z M 4.9,7.8 13.3,3 c 0.2,-0.1 0.4,-0.1 0.5,0 l 8.4,4.9 c 0.4,0.1 0.4,0.7 0,0.9 l -8.4,4.9 c -0.2,0.1 -0.4,0.1 -0.5,0 L 4.9,8.8 C 4.5,8.6 4.5,8 4.9,7.8 Z m 7.2,18.5 c 0,0.4 -0.4,0.7 -0.8,0.5 L 2.9,21.9 C 2.7,21.8 2.6,21.6 2.6,21.5 v -9.7 c 0,-0.4 0.4,-0.7 0.8,-0.5 l 8.4,4.9 c 0.2,0.1 0.3,0.3 0.3,0.5 z m 12.4,-4.8 c 0,0.2 -0.1,0.4 -0.3,0.5 l -8.4,4.9 C 15.4,27.1 15,26.8 15,26.4 v -9.7 c 0,-0.2 0.1,-0.4 0.3,-0.5 l 8.4,-4.9 c 0.4,-0.2 0.8,0.1 0.8,0.5 z" />
</svg>