<?xml version="1.0" encoding="UTF-8" standalone="no"?>
<!-- Generator: Adobe Illustrator 24.1.3, SVG Export Plug-In . SVG Version: 6.00 Build 0)  -->

<svg
   version="1.1"
   id="Layer_1"
   x="0px"
   y="0px"
   viewBox="0 0 27.099999 30.799999"
   xml:space="preserve"
   sodipodi:docname="htb.svg"
   width="27.1"
   height="30.799999"
   inkscape:version="1.2.1 (9c6d41e4, 2022-07-14)"
   xmlns:inkscape="http://www.inkscape.org/namespaces/inkscape"
   xmlns:sodipodi="http://sodipodi.sourceforge.net/DTD/sodipodi-0.dtd"
   xmlns="http://www.w3.org/2000/svg"
   xmlns:svg="http://www.w3.org/2000/svg"><defs
   id="defs40" /><sodipodi:namedview
   id="namedview38"
   pagecolor="#ffffff"
   bordercolor="#666666"
   borderopacity="1.0"
   inkscape:showpageshadow="2"
   inkscape:pageopacity="0.0"
   inkscape:pagecheckerboard="0"
   inkscape:deskcolor="#d1d1d1"
   showgrid="false"
   inkscape:zoom="6.8459794"
   inkscape:cx="86.912327"
   inkscape:cy="15.483541"
   inkscape:window-width="1440"
   inkscape:window-height="900"
   inkscape:window-x="0"
   inkscape:window-y="0"
   inkscape:window-maximized="0"
   inkscape:current-layer="Layer_1" />
<path fill="currentColor"
   d="m 27.1,8.3 c 0,0 0,0 0,0 0,-0.3 -0.1,-0.6 -0.3,-0.8 0,0 0,0 0,0 0,0 0,0 -0.1,-0.1 0,0 -0.1,0 -0.1,-0.1 0,0 0,0 0,0 L 14.1,0.2 c 0,0 -0.1,0 -0.1,0 C 13.9,0 13.7,0 13.5,0 13.4,0 13.3,0 13.2,0.1 13.1,0.1 13.1,0.2 13,0.2 L 0.6,7.3 c 0,0 0,0 0,0 0,0 0,0 0,0 0,0 0,0 0,0 -0.2,0.1 -0.3,0.2 -0.3,0.2 0,0 0,0 0,0 C 0.1,7.7 0,8 0,8.3 c 0,0 0,0 0,0 0,0 0,0 0,0 v 14.3 c 0,0.4 0.2,0.8 0.6,1 L 13,30.7 c 0,0 0,0 0.1,0 0,0 0,0 0,0 0.1,0 0.1,0.1 0.2,0.1 0,0 0,0 0,0 0.1,0 0.2,0 0.2,0 0.1,0 0.2,0 0.2,0 0,0 0,0 0,0 0.1,0 0.1,0 0.2,-0.1 0,0 0,0 0,0 0,0 0,0 0.1,0 L 26.4,23.6 C 26.8,23.4 27,23 27,22.6 L 27.1,8.3 c 0,0 0,0 0,0 z M 4.9,7.8 13.3,3 c 0.2,-0.1 0.4,-0.1 0.5,0 l 8.4,4.9 c 0.4,0.1 0.4,0.7 0,0.9 l -8.4,4.9 c -0.2,0.1 -0.4,0.1 -0.5,0 L 4.9,8.8 C 4.5,8.6 4.5,8 4.9,7.8 Z m 7.2,18.5 c 0,0.4 -0.4,0.7 -0.8,0.5 L 2.9,21.9 C 2.7,21.8 2.6,21.6 2.6,21.5 v -9.7 c 0,-0.4 0.4,-0.7 0.8,-0.5 l 8.4,4.9 c 0.2,0.1 0.3,0.3 0.3,0.5 z m 12.4,-4.8 c 0,0.2 -0.1,0.4 -0.3,0.5 l -8.4,4.9 C 15.4,27.1 15,26.8 15,26.4 v -9.7 c 0,-0.2 0.1,-0.4 0.3,-0.5 l 8.4,-4.9 c 0.4,-0.2 0.8,0.1 0.8,0.5 z"
   id="path11" />
<desc
   id="desc13">Created with Sketch.</desc>

</svg>
