<?xml version="1.0" encoding="UTF-8" standalone="no"?>
<svg
	width="500"
	height="500"
	viewBox="0 0 132.29167 132.29167"
	version="1.1"
	id="svg8"
	inkscape:export-xdpi="98.304001"
	inkscape:export-ydpi="98.304001"
	xmlns:inkscape="http://www.inkscape.org/namespaces/inkscape"
	xmlns="http://www.w3.org/2000/svg"
	xmlns:svg="http://www.w3.org/2000/svg">
	<defs
		id="defs2">
		<inkscape:path-effect
			effect="mirror_symmetry"
			start_point="-211.39001,149.322"
			end_point="-231.39001,430.13"
			center_point="-221.39001,289.726"
			id="path-effect870"
			is_visible="true"
			lpeversion="1"
			mode="free"
			discard_orig_path="false"
			fuse_paths="false"
			oposite_fuse="false"
			split_items="false" />
		<inkscape:path-effect
			effect="mirror_symmetry"
			start_point="260,156.2334"
			end_point="260,473.7666"
			center_point="260,315"
			id="path-effect862"
			is_visible="true"
			lpeversion="1"
			mode="free"
			discard_orig_path="false"
			fuse_paths="false"
			oposite_fuse="false"
			split_items="false" />
		<inkscape:path-effect
			effect="mirror_symmetry"
			start_point="203.29395,134.97891"
			end_point="203.29395,452.51211"
			center_point="203.29395,293.74551"
			id="path-effect858"
			is_visible="true"
			lpeversion="1"
			mode="free"
			discard_orig_path="false"
			fuse_paths="false"
			oposite_fuse="false"
			split_items="false" />
	</defs>
	<g
		inkscape:label="Layer 1"
		inkscape:groupmode="layer"
		id="layer1">
		<g
			id="g34"
			transform="matrix(0.26458333,0,0,0.26458333,-2.5214783,-5.230812)"
			style="fill:#ff0000">
			<path
				d="m 349.08182,158.96344 c -40.32,0 -57.36,19.24 -85.44,19.24 -28.79,0 -50.75,-19.1 -85.69,-19.1 -34.2,0 -70.67,20.88 -93.830002,56.45 -32.52,50.16 -27,144.63 25.670002,225.11 18.84,28.81 44,61.12 77,61.47 h 0.6 c 28.68,0 37.2,-18.78 76.67,-19 h 0.6 c 38.88,0 46.68,18.89 75.24,18.89 h 0.6 c 33,-0.35 59.51,-36.15 78.35,-64.85 13.56,-20.64 18.6,-31 29,-54.35 -76.19,-28.92 -88.43,-136.93 -13.08,-178.34 -23,-28.8 -55.32,-45.48 -85.79,-45.48 z"
				id="path20"
				style="fill:#ff0000" />
			<path
				d="M 449.53,379.77 C 380.82294,345.76035 361.1,242.84 436.45,201.43 c -23,-28.8 -55.32,-45.48 -85.79,-45.48 l 0.1,-0.04 c -40.32,0 -57.36,19.24 -85.44,19.24 -28.79,0 -50.75,-19.1 -85.69,-19.1 -34.2,0 -70.67,20.88 -93.829998,56.45 -32.52,50.16 -22.922974,142.90456 29.747028,223.38456"
				id="path20-3"
				style="fill:none;fill-opacity:1;stroke:#0000ff;stroke-width:15.1181;stroke-miterlimit:4;stroke-dasharray:none;stroke-opacity:1" />
			<path
				d="m 445.94492,369.81003 c -36.93478,97.3425 -143.06245,80.61767 -180.20677,3.076"
				id="path20-3-6"
				style="fill:none;fill-opacity:1;stroke:#000000;stroke-width:13.98425215;stroke-miterlimit:4;stroke-dasharray:none;stroke-opacity:1"
				inkscape:transform-center-x="1.8851645"
				inkscape:transform-center-y="11.6818" />
			<path
				d="M 69.529998,259.77 C 148.69887,279.09805 176.77589,395.37804 105.76639,433.10279"
				id="path20-3-6-5"
				style="fill:none;fill-opacity:1;stroke:#0000ff;stroke-width:15.1181;stroke-miterlimit:4;stroke-dasharray:none;stroke-opacity:1"
				inkscape:transform-center-x="-9.9793749"
				inkscape:transform-center-y="1.0817878" />
			<path
				id="path3075"
				d="M 217.07908,131.33603 243.53,157.77 c 14.21552,-16.06214 35.23182,-8.12656 35.23182,-8.12656 7.70153,-31.37667 55.16535,-77.033302 55.16535,-77.033302 0,0 -25.79475,-7.246307 -23.51343,-39.772669 0,0 -45.21153,54.121771 -86.5017,63.596921 0,0 7.70088,22.06732 -6.83295,34.90162 z"
				style="fill:#00ff00;fill-opacity:0.75;fill-rule:evenodd;stroke:#00fd00;stroke-width:0.822167;stroke-linecap:round;stroke-linejoin:round;stroke-miterlimit:4;stroke-dasharray:none;stroke-opacity:1" />
		</g>
		<path
			style="fill:none;stroke:#0000ff;stroke-width:4;stroke-linecap:butt;stroke-linejoin:miter;stroke-dasharray:none;stroke-opacity:1"
			d="m 112.95592,48.064208 c 8.59251,9.456871 11.22122,28.36424 1.69326,46.230412"
			id="path2799" />
		<path
			style="fill:#0000ff;fill-opacity:1;stroke:#0000ff;stroke-width:8.63892;stroke-dasharray:none;stroke-opacity:1;paint-order:stroke fill markers"
			d="M 99.281002,389.28571 C 82.608679,358.59278 71.595434,325.69078 67.185524,293.40068 65.814221,283.35977 65.043901,266.8516 65.546957,258.28571 L 66,250.57143 l 1.409976,0.15814 c 2.202671,0.24704 12.632095,5.42898 17.560411,8.72502 16.910963,11.31 30.108943,28.25181 37.595183,48.2597 10.39736,27.78819 8.16221,56.58242 -6.01247,77.45556 -2.39757,3.53058 -11.14948,13.11586 -11.97553,13.11586 -0.22429,0 -2.60774,-4.05 -5.296568,-9 z"
			id="path2801"
			transform="scale(0.26458333)" />
		<path
			style="fill:#0000ff;stroke:#0000ff;stroke-width:4.8896;stroke-dasharray:none;paint-order:stroke fill markers"
			d="m 427.2595,342.90449 c -21.5975,-16.29136 -36.49286,-42.2009 -40.06245,-69.68607 -0.79389,-6.11283 -0.78884,-17.07288 0.0105,-22.69394 3.37572,-23.73977 14.99915,-42.78739 34.39388,-56.36215 1.78461,-1.24908 3.46609,-2.18613 3.73661,-2.08231 0.84444,0.32404 6.53669,9.26306 9.16262,14.38881 9.23445,18.02548 13.75361,38.17395 13.76335,61.36334 0.007,15.95099 -1.36987,26.81842 -5.46982,43.18182 -2.30225,9.18859 -8.08912,25.2493 -11.59766,32.18787 l -0.9782,1.9345 z"
			id="path1021"
			transform="scale(0.26458333)" />
	</g>
</svg>